<?xml version="1.0" encoding="UTF-8" standalone="no"?>
<!-- Created with Inkscape (http://www.inkscape.org/) -->

<svg
   width="210mm"
   height="297mm"
   viewBox="0 0 210 297"
   version="1.1"
   id="svg1"
   xml:space="preserve"
   inkscape:version="1.3.2 (091e20e, 2023-11-25, custom)"
   sodipodi:docname="logo-v2.svg"
   inkscape:export-filename="logo-draft.png"
   inkscape:export-xdpi="96"
   inkscape:export-ydpi="96"
   xmlns:inkscape="http://www.inkscape.org/namespaces/inkscape"
   xmlns:sodipodi="http://sodipodi.sourceforge.net/DTD/sodipodi-0.dtd"
   xmlns="http://www.w3.org/2000/svg"
   xmlns:svg="http://www.w3.org/2000/svg"><sodipodi:namedview
     id="namedview1"
     pagecolor="#ffffff"
     bordercolor="#999999"
     borderopacity="1"
     inkscape:showpageshadow="2"
     inkscape:pageopacity="0"
     inkscape:pagecheckerboard="0"
     inkscape:deskcolor="#d1d1d1"
     inkscape:document-units="mm"
     inkscape:zoom="0.865"
     inkscape:cx="317.91908"
     inkscape:cy="459.53757"
     inkscape:window-width="1920"
     inkscape:window-height="1009"
     inkscape:window-x="-8"
     inkscape:window-y="-8"
     inkscape:window-maximized="1"
     inkscape:current-layer="layer1" /><defs
     id="defs1"><inkscape:path-effect
       effect="powerstroke"
       id="path-effect17"
       is_visible="true"
       lpeversion="1.3"
       scale_width="1"
       interpolator_type="CentripetalCatmullRom"
       interpolator_beta="0.75"
       start_linecap_type="round"
       end_linecap_type="round"
       offset_points="32.546913,2.29614"
       linejoin_type="spiro"
       miter_limit="4"
       not_jump="true"
       sort_points="true"
       message="&lt;b&gt;Ctrl+kliknij&lt;/b&gt; istniejący węzeł i przesuń go" /><inkscape:path-effect
       effect="simplify"
       id="path-effect16"
       is_visible="true"
       lpeversion="1.3"
       threshold="0.012"
       steps="1"
       smooth_angles="0"
       helper_size="0"
       simplify_individual_paths="false"
       simplify_just_coalesce="false"
       step="1" /><inkscape:path-effect
       effect="powerstroke"
       id="path-effect15"
       is_visible="true"
       lpeversion="1.3"
       scale_width="1"
       interpolator_type="CentripetalCatmullRom"
       interpolator_beta="0.75"
       start_linecap_type="round"
       end_linecap_type="round"
       offset_points="39.715856,2.29614"
       linejoin_type="spiro"
       miter_limit="4"
       not_jump="true"
       sort_points="true"
       message="&lt;b&gt;Ctrl+kliknij&lt;/b&gt; istniejący węzeł i przesuń go" /><inkscape:path-effect
       effect="simplify"
       id="path-effect14"
       is_visible="true"
       lpeversion="1.3"
       threshold="0.012"
       steps="1"
       smooth_angles="0"
       helper_size="0"
       simplify_individual_paths="false"
       simplify_just_coalesce="false"
       step="1" /><inkscape:path-effect
       effect="powerstroke"
       id="path-effect13"
       is_visible="true"
       lpeversion="1.3"
       scale_width="1"
       interpolator_type="CentripetalCatmullRom"
       interpolator_beta="0.75"
       start_linecap_type="round"
       end_linecap_type="round"
       offset_points="1.7001391,2.29614"
       linejoin_type="spiro"
       miter_limit="4"
       not_jump="true"
       sort_points="true"
       message="&lt;b&gt;Ctrl+kliknij&lt;/b&gt; istniejący węzeł i przesuń go" /><inkscape:path-effect
       effect="simplify"
       id="path-effect11"
       is_visible="true"
       lpeversion="1.3"
       threshold="0.012"
       steps="1"
       smooth_angles="0"
       helper_size="0"
       simplify_individual_paths="false"
       simplify_just_coalesce="false"
       step="1" /><inkscape:path-effect
       effect="powerstroke"
       id="path-effect8"
       is_visible="true"
       lpeversion="1.3"
       scale_width="1"
       interpolator_type="CentripetalCatmullRom"
       interpolator_beta="0.75"
       start_linecap_type="round"
       end_linecap_type="round"
       offset_points="77.57956,2.29614"
       linejoin_type="spiro"
       miter_limit="4"
       not_jump="true"
       sort_points="true"
       message="&lt;b&gt;Ctrl+kliknij&lt;/b&gt; istniejący węzeł i przesuń go" /><inkscape:path-effect
       effect="simplify"
       id="path-effect7"
       is_visible="true"
       lpeversion="1.3"
       threshold="0.012"
       steps="1"
       smooth_angles="0"
       helper_size="0"
       simplify_individual_paths="false"
       simplify_just_coalesce="false"
       step="1" /><inkscape:path-effect
       effect="bend_path"
       id="path-effect5"
       is_visible="true"
       lpeversion="1"
       bendpath="m 60.618662,122.52344 c 3.99055,-0.51191 13.885455,-0.65479 24.297124,-0.76538"
       prop_scale="1"
       scale_y_rel="false"
       vertical="false"
       hide_knot="false"
       bendpath-nodetypes="cc" /><inkscape:path-effect
       effect="bend_path"
       id="path-effect4"
       is_visible="true"
       lpeversion="1"
       bendpath="m 9.6485691,145.88143 c 11.0916659,-5.86766 23.4879289,-7.95357 38.8717419,0"
       prop_scale="1"
       scale_y_rel="false"
       vertical="false"
       hide_knot="false"
       bendpath-nodetypes="cc" /><inkscape:path-effect
       effect="bend_path"
       id="path-effect22"
       is_visible="true"
       lpeversion="1"
       bendpath="m 28.165985,91.845603 c 7.449699,0 15.617783,1.268098 22.349096,0"
       prop_scale="1"
       scale_y_rel="false"
       vertical="false"
       hide_knot="false"
       bendpath-nodetypes="cc" /><inkscape:path-effect
       effect="bend_path"
       id="path-effect12"
       is_visible="true"
       lpeversion="1"
       bendpath="m 93.529434,158.01271 c 2.681879,4.21153 14.132236,7.85809 21.583716,0"
       prop_scale="0.98744931"
       scale_y_rel="false"
       vertical="false"
       hide_knot="false"
       bendpath-nodetypes="cc" /><inkscape:path-effect
       effect="bend_path"
       id="path-effect10"
       is_visible="true"
       lpeversion="1"
       bendpath="m 20.024599,204.03443 c 11.994523,8.27239 25.421612,9.44616 40.915131,0"
       prop_scale="1"
       scale_y_rel="false"
       vertical="false"
       hide_knot="false"
       bendpath-nodetypes="cc" /><inkscape:path-effect
       effect="knot"
       id="path-effect9"
       is_visible="true"
       lpeversion="1"
       switcher_size="15"
       interruption_width="3"
       prop_to_stroke_width="true"
       add_stroke_width="inkscape_1.0_and_up"
       both="false"
       inverse_width="false"
       add_other_stroke_width="inkscape_1.0_and_up"
       crossing_points_vector="" /></defs><g
     inkscape:label="Warstwa 1"
     inkscape:groupmode="layer"
     id="layer1"><path
       id="path1"
       style="fill:#66d297;fill-opacity:0.968391;stroke:#0e2d43;stroke-width:2.867;stroke-dasharray:none;stroke-opacity:1"
       d="M 105.16567 86.889787 A 61.53323 61.53323 0 0 0 75.342171 94.816435 L 75.991744 95.455155 C 76.487408 95.942567 76.707755 96.516673 76.485771 96.742415 L 53.80085 119.81129 C 53.578866 120.03703 53.001503 119.82638 52.505839 119.33897 L 51.605636 118.45375 A 61.53323 61.53323 0 0 0 43.632479 148.42298 A 61.53323 61.53323 0 0 0 105.16567 209.95669 A 61.53323 61.53323 0 0 0 166.69887 148.42298 A 61.53323 61.53323 0 0 0 156.23698 114.2292 A 18.863436 18.863436 0 0 1 138.37295 96.625627 A 61.53323 61.53323 0 0 0 105.16567 86.889787 z " /><circle
       style="fill:#f7f9eb;fill-opacity:1;stroke:#0e2d43;stroke-width:3.09041;stroke-dasharray:none;stroke-opacity:1;image-rendering:auto"
       id="path1-7"
       cx="105"
       cy="148.5"
       r="50.954796" /><circle
       style="fill:#66c698;fill-opacity:1;fill-rule:nonzero;stroke:none;stroke-width:2.44539;stroke-dasharray:none;stroke-dashoffset:0;stroke-opacity:1"
       id="path2"
       cx="71.937912"
       cy="161.36057"
       r="6" /><circle
       style="fill:#0e2d43;fill-opacity:1;fill-rule:nonzero;stroke:none;stroke-width:3.77422;stroke-dasharray:none;stroke-dashoffset:0;stroke-opacity:1"
       id="path2-3"
       cx="84.350609"
       cy="146.05437"
       r="9.260417" /><circle
       style="fill:#0e2d43;fill-opacity:1;fill-rule:nonzero;stroke:none;stroke-width:3.77422;stroke-dasharray:none;stroke-dashoffset:0;stroke-opacity:1"
       id="path2-0"
       cx="126.37309"
       cy="145.50844"
       r="9.260417" /><circle
       style="fill:#f9fef9;fill-opacity:1;fill-rule:nonzero;stroke:none;stroke-width:1.07835;stroke-dasharray:none;stroke-dashoffset:0;stroke-opacity:1"
       id="path2-0-6"
       cx="123.71574"
       cy="142.21175"
       r="2.6458333" /><circle
       style="fill:#f9fef9;fill-opacity:1;fill-rule:nonzero;stroke:none;stroke-width:1.07835;stroke-dasharray:none;stroke-dashoffset:0;stroke-opacity:1"
       id="path2-0-6-2"
       cx="81.971565"
       cy="142.92038"
       r="2.6458333" /><circle
       style="fill:#66c698;fill-opacity:1;fill-rule:nonzero;stroke:none;stroke-width:2.44539;stroke-dasharray:none;stroke-dashoffset:0;stroke-opacity:1"
       id="path2-5"
       cx="136.80476"
       cy="162.00929"
       r="6" /><path
       style="fill:#0e2d43;fill-opacity:1;fill-rule:nonzero;stroke:none;stroke-width:2.01;stroke-dasharray:none;stroke-dashoffset:0;stroke-opacity:1"
       id="rect11"
       width="21.583717"
       height="3.597286"
       x="93.529434"
       y="156.21407"
       rx="2.225148"
       ry="1.798643"
       inkscape:path-effect="#path-effect12"
       sodipodi:type="rect"
       d="m 96.20309,158.43327 c 1.606265,1.32111 4.10558,1.97507 6.52447,2.3402 3.27727,0.36928 6.73249,-0.54753 9.38952,-2.47903 0.92349,-0.67133 2.21709,-0.87659 2.91848,-0.20057 0.70276,0.67737 0.47449,2.11 -0.83991,3.0634 -3.39421,2.46201 -7.67221,3.60143 -11.85783,3.14689 -2.868917,-0.21857 -5.986659,-1.1593 -8.379753,-3.2005 -1.245557,-1.0624 -1.328661,-2.66929 -0.488301,-3.18628 0.814122,-0.50084 2.00639,-0.082 2.733324,0.51589 z"
       transform="matrix(1.4203001,0,0,1.4957692,-42.519465,-75.802491)" /><circle
       style="fill:#66c698;fill-opacity:1;fill-rule:nonzero;stroke:#0e2d43;stroke-width:1.82992;stroke-dasharray:none;stroke-dashoffset:0;stroke-opacity:1"
       id="path13-4"
       cx="159.65952"
       cy="93.299644"
       r="17.605875" /><ellipse
       style="fill:#66c698;fill-opacity:1;fill-rule:nonzero;stroke:#0e2d43;stroke-width:1.60511;stroke-dasharray:none;stroke-dashoffset:0;stroke-opacity:1"
       id="path13-4-3"
       cx="159.65952"
       cy="93.299644"
       rx="13.088068"
       ry="13.088069" /><path
       style="fill:#0e2d43;fill-opacity:1;fill-rule:nonzero;stroke:#0e2d43;stroke-width:0.509;stroke-dasharray:none;stroke-dashoffset:0;stroke-opacity:1"
       d="m 159.42918,98.947925 c -0.31303,-0.11579 -0.39983,-0.28323 -0.46514,-0.89721 l -0.056,-0.52693 -0.77673,-0.19677 c -1.28419,-0.325316 -1.737,-0.641564 -1.61494,-1.12789 0.0374,-0.148849 0.18069,-0.344524 0.31852,-0.434832 0.22722,-0.148884 0.30971,-0.143854 0.88457,0.05393 2.07264,0.713094 3.79962,0.418033 3.71086,-0.634016 -0.0446,-0.528482 -0.41259,-0.756021 -1.92976,-1.193181 -2.31015,-0.665652 -3.03221,-1.271172 -3.02556,-2.537267 0.005,-1.016735 0.73342,-1.852731 1.91199,-2.195351 l 0.57517,-0.167206 v -0.484325 c 0,-0.369898 0.0628,-0.547092 0.26569,-0.750007 0.33506,-0.33506 0.5407,-0.33506 0.87576,0 0.20298,0.202978 0.26569,0.380085 0.26569,0.750393 0,0.525791 0.0109,0.534781 0.81181,0.668039 0.63522,0.105695 0.92004,0.319907 0.92004,0.691954 0,0.580395 -0.23871,0.689073 -1.29078,0.587666 -1.75695,-0.169347 -2.50699,-0.02503 -2.88741,0.555564 -0.43567,0.664916 0.0531,1.023834 2.34413,1.72144 0.76483,0.232886 1.43041,0.510969 1.71308,0.715732 1.51006,1.093886 0.95294,3.3244 -0.96344,3.857197 l -0.64743,0.18 v 0.44526 c 0,0.71603 -0.4082,1.11457 -0.94007,0.91782 z"
       id="path21" /><circle
       id="path5"
       style="fill:#0e2d43;stroke:none;stroke-width:0.264583"
       cx="42.248974"
       cy="108.99011"
       r="0.033000004" /><circle
       id="path6"
       style="fill:#0e2d43;stroke:none;stroke-width:0.264583"
       cx="27.706757"
       cy="127.20615"
       r="0.033000004" /><g
       id="g1"
       transform="rotate(44.496443,9.2644341,68.362284)"><path
         id="rect4-3-1"
         style="fill:#66d397;fill-opacity:0.968627;stroke:#0e2d43;stroke-width:1.6;stroke-dasharray:none;paint-order:normal"
         d="m 49.052837,45.402105 c -0.293848,0.34722 -0.464414,0.76615 -0.462999,1.21805 l 0.07003,22.32992 c 0.0039,1.20508 1.229472,2.17426 2.747824,2.17339 l 21.665927,-0.0124 -0.0082,-26.68011 -21.741639,0.012 c -0.948966,5.5e-4 -1.781176,0.38046 -2.270918,0.95916 z" /><path
         id="rect4-3-7"
         style="fill:#66d397;fill-opacity:1;stroke:#0e2d43;stroke-width:0;stroke-dasharray:none;paint-order:normal"
         d="m 49.61361,46.170786 c -0.297498,0.324491 -0.470589,0.716314 -0.469992,1.139312 l 0.02948,20.901456 c 0.0016,1.12799 1.238048,2.037306 2.771948,2.039156 l 21.887819,0.02628 0.041,-24.973238 -21.964306,-0.02676 c -0.958688,-0.0013 -1.80012,0.353007 -2.295949,0.893834 z" /><rect
         style="fill:#0e2d43;fill-opacity:1;stroke:#0e2d43;stroke-width:0;stroke-linecap:butt;stroke-linejoin:miter;stroke-miterlimit:4;stroke-dasharray:none;paint-order:normal"
         id="rect4"
         width="25.40387"
         height="2.5387928"
         x="48.496048"
         y="49.231293"
         rx="0"
         ry="0"
         transform="rotate(0.03030765)" /><circle
         style="fill:#0e2d43;fill-opacity:1;stroke:#0e2d43;stroke-width:0;stroke-linecap:butt;stroke-linejoin:miter;stroke-miterlimit:4;stroke-dasharray:none;paint-order:normal"
         id="path4"
         cx="54.41095"
         cy="65.913658"
         transform="rotate(0.03030765)"
         r="3" /><circle
         style="fill:#0e2d43;fill-opacity:1;stroke:#0e2d43;stroke-width:0;stroke-linecap:butt;stroke-linejoin:miter;stroke-miterlimit:4;stroke-dasharray:none;paint-order:normal"
         id="path4-8"
         cx="58.793167"
         cy="65.913422"
         transform="rotate(0.03030765)"
         r="3" /></g></g></svg>
