<?xml version="1.0" encoding="UTF-8" standalone="no"?>
<!-- Created with Inkscape (http://www.inkscape.org/) -->

<svg
   width="150.50659mm"
   height="136.61139mm"
   viewBox="0 0 150.50659 136.61139"
   version="1.1"
   id="svg1"
   xml:space="preserve"
   xmlns="http://www.w3.org/2000/svg"
   xmlns:svg="http://www.w3.org/2000/svg"><defs
     id="defs1" /><g
     id="layer1"
     transform="translate(-27.673757,-74.778809)"><path
       id="path1"
       style="fill:#66d297;fill-opacity:0.968391;stroke:#0e2d43;stroke-width:2.867;stroke-dasharray:none;stroke-opacity:1"
       d="m 105.16567,86.889787 a 61.53323,61.53323 0 0 0 -29.823499,7.926648 l 0.649573,0.63872 c 0.495664,0.487412 0.716011,1.061518 0.494027,1.28726 L 53.80085,119.81129 c -0.221984,0.22574 -0.799347,0.0151 -1.295011,-0.47232 l -0.900203,-0.88522 a 61.53323,61.53323 0 0 0 -7.973157,29.96923 61.53323,61.53323 0 0 0 61.533191,61.53371 61.53323,61.53323 0 0 0 61.5332,-61.53371 61.53323,61.53323 0 0 0 -10.46189,-34.19378 18.863436,18.863436 0 0 1 -17.86403,-17.603573 61.53323,61.53323 0 0 0 -33.20728,-9.73584 z" /><circle
       style="fill:#f7f9eb;fill-opacity:1;stroke:#0e2d43;stroke-width:3.09041;stroke-dasharray:none;stroke-opacity:1;image-rendering:auto"
       id="path1-7"
       cx="105"
       cy="148.5"
       r="50.954796" /><circle
       style="fill:#66c698;fill-opacity:1;fill-rule:nonzero;stroke:none;stroke-width:2.44539;stroke-dasharray:none;stroke-dashoffset:0;stroke-opacity:1"
       id="path2"
       cx="71.937912"
       cy="161.36057"
       r="6" /><circle
       style="fill:#0e2d43;fill-opacity:1;fill-rule:nonzero;stroke:none;stroke-width:3.77422;stroke-dasharray:none;stroke-dashoffset:0;stroke-opacity:1"
       id="path2-3"
       cx="84.350609"
       cy="146.05437"
       r="9.260417" /><circle
       style="fill:#0e2d43;fill-opacity:1;fill-rule:nonzero;stroke:none;stroke-width:3.77422;stroke-dasharray:none;stroke-dashoffset:0;stroke-opacity:1"
       id="path2-0"
       cx="126.37309"
       cy="145.50844"
       r="9.260417" /><circle
       style="fill:#f9fef9;fill-opacity:1;fill-rule:nonzero;stroke:none;stroke-width:1.07835;stroke-dasharray:none;stroke-dashoffset:0;stroke-opacity:1"
       id="path2-0-6"
       cx="123.71574"
       cy="142.21175"
       r="2.6458333" /><circle
       style="fill:#f9fef9;fill-opacity:1;fill-rule:nonzero;stroke:none;stroke-width:1.07835;stroke-dasharray:none;stroke-dashoffset:0;stroke-opacity:1"
       id="path2-0-6-2"
       cx="81.971565"
       cy="142.92038"
       r="2.6458333" /><circle
       style="fill:#66c698;fill-opacity:1;fill-rule:nonzero;stroke:none;stroke-width:2.44539;stroke-dasharray:none;stroke-dashoffset:0;stroke-opacity:1"
       id="path2-5"
       cx="136.80476"
       cy="162.00929"
       r="6" /><path
       style="fill:#0e2d43;fill-opacity:1;fill-rule:nonzero;stroke:none;stroke-width:2.01;stroke-dasharray:none;stroke-dashoffset:0;stroke-opacity:1"
       id="rect11"
       width="21.583717"
       height="3.597286"
       x="93.529434"
       y="156.21407"
       rx="2.225148"
       ry="1.798643"
       d="m 96.20309,158.43327 c 1.606265,1.32111 4.10558,1.97507 6.52447,2.3402 3.27727,0.36928 6.73249,-0.54753 9.38952,-2.47903 0.92349,-0.67133 2.21709,-0.87659 2.91848,-0.20057 0.70276,0.67737 0.47449,2.11 -0.83991,3.0634 -3.39421,2.46201 -7.67221,3.60143 -11.85783,3.14689 -2.868917,-0.21857 -5.986659,-1.1593 -8.379753,-3.2005 -1.245557,-1.0624 -1.328661,-2.66929 -0.488301,-3.18628 0.814122,-0.50084 2.00639,-0.082 2.733324,0.51589 z"
       transform="matrix(1.4203001,0,0,1.4957692,-42.519465,-75.802491)" /><circle
       style="fill:#66c698;fill-opacity:1;fill-rule:nonzero;stroke:#0e2d43;stroke-width:1.82992;stroke-dasharray:none;stroke-dashoffset:0;stroke-opacity:1"
       id="path13-4"
       cx="159.65952"
       cy="93.299644"
       r="17.605875" /><ellipse
       style="fill:#66c698;fill-opacity:1;fill-rule:nonzero;stroke:#0e2d43;stroke-width:1.60511;stroke-dasharray:none;stroke-dashoffset:0;stroke-opacity:1"
       id="path13-4-3"
       cx="159.65952"
       cy="93.299644"
       rx="13.088068"
       ry="13.088069" /><path
       style="fill:#0e2d43;fill-opacity:1;fill-rule:nonzero;stroke:#0e2d43;stroke-width:0.509;stroke-dasharray:none;stroke-dashoffset:0;stroke-opacity:1"
       d="m 159.42918,98.947925 c -0.31303,-0.11579 -0.39983,-0.28323 -0.46514,-0.89721 l -0.056,-0.52693 -0.77673,-0.19677 c -1.28419,-0.325316 -1.737,-0.641564 -1.61494,-1.12789 0.0374,-0.148849 0.18069,-0.344524 0.31852,-0.434832 0.22722,-0.148884 0.30971,-0.143854 0.88457,0.05393 2.07264,0.713094 3.79962,0.418033 3.71086,-0.634016 -0.0446,-0.528482 -0.41259,-0.756021 -1.92976,-1.193181 -2.31015,-0.665652 -3.03221,-1.271172 -3.02556,-2.537267 0.005,-1.016735 0.73342,-1.852731 1.91199,-2.195351 l 0.57517,-0.167206 v -0.484325 c 0,-0.369898 0.0628,-0.547092 0.26569,-0.750007 0.33506,-0.33506 0.5407,-0.33506 0.87576,0 0.20298,0.202978 0.26569,0.380085 0.26569,0.750393 0,0.525791 0.0109,0.534781 0.81181,0.668039 0.63522,0.105695 0.92004,0.319907 0.92004,0.691954 0,0.580395 -0.23871,0.689073 -1.29078,0.587666 -1.75695,-0.169347 -2.50699,-0.02503 -2.88741,0.555564 -0.43567,0.664916 0.0531,1.023834 2.34413,1.72144 0.76483,0.232886 1.43041,0.510969 1.71308,0.715732 1.51006,1.093886 0.95294,3.3244 -0.96344,3.857197 l -0.64743,0.18 v 0.44526 c 0,0.71603 -0.4082,1.11457 -0.94007,0.91782 z"
       id="path21" /><circle
       id="path5"
       style="fill:#0e2d43;stroke:none;stroke-width:0.264583"
       cx="42.248974"
       cy="108.99011"
       r="0.033000004" /><circle
       id="path6"
       style="fill:#0e2d43;stroke:none;stroke-width:0.264583"
       cx="27.706757"
       cy="127.20615"
       r="0.033000004" /><g
       id="g1"
       transform="rotate(44.496443,9.2644341,68.362284)"><path
         id="rect4-3-1"
         style="fill:#66d397;fill-opacity:0.968627;stroke:#0e2d43;stroke-width:1.6;stroke-dasharray:none;paint-order:normal"
         d="m 49.052837,45.402105 c -0.293848,0.34722 -0.464414,0.76615 -0.462999,1.21805 l 0.07003,22.32992 c 0.0039,1.20508 1.229472,2.17426 2.747824,2.17339 l 21.665927,-0.0124 -0.0082,-26.68011 -21.741639,0.012 c -0.948966,5.5e-4 -1.781176,0.38046 -2.270918,0.95916 z" /><path
         id="rect4-3-7"
         style="fill:#66d397;fill-opacity:1;stroke:#0e2d43;stroke-width:0;stroke-dasharray:none;paint-order:normal"
         d="m 49.61361,46.170786 c -0.297498,0.324491 -0.470589,0.716314 -0.469992,1.139312 l 0.02948,20.901456 c 0.0016,1.12799 1.238048,2.037306 2.771948,2.039156 l 21.887819,0.02628 0.041,-24.973238 -21.964306,-0.02676 c -0.958688,-0.0013 -1.80012,0.353007 -2.295949,0.893834 z" /><rect
         style="fill:#0e2d43;fill-opacity:1;stroke:#0e2d43;stroke-width:0;stroke-linecap:butt;stroke-linejoin:miter;stroke-miterlimit:4;stroke-dasharray:none;paint-order:normal"
         id="rect4"
         width="25.40387"
         height="2.5387928"
         x="48.496048"
         y="49.231293"
         rx="0"
         ry="0"
         transform="rotate(0.03030765)" /><circle
         style="fill:#0e2d43;fill-opacity:1;stroke:#0e2d43;stroke-width:0;stroke-linecap:butt;stroke-linejoin:miter;stroke-miterlimit:4;stroke-dasharray:none;paint-order:normal"
         id="path4"
         cx="54.41095"
         cy="65.913658"
         transform="rotate(0.03030765)"
         r="3" /><circle
         style="fill:#0e2d43;fill-opacity:1;stroke:#0e2d43;stroke-width:0;stroke-linecap:butt;stroke-linejoin:miter;stroke-miterlimit:4;stroke-dasharray:none;paint-order:normal"
         id="path4-8"
         cx="58.793167"
         cy="65.913422"
         transform="rotate(0.03030765)"
         r="3" /></g></g></svg>
